{"title":"Mike Will Made It Ft. Miley Cyrus, Juicy J &amp; Wiz Khalifa - 2","uid":8980019,"size":104356528,"categoryP":"video","categoryS":"music_videos","magnet":"?xt=urn:btih:dd8bfbb5ef6836220ddc551eaa0847242e15b151&amp;dn=Mike+Will+Made+It+Ft.+Miley+Cyrus%2C+Juicy+J+%26amp%3B+Wiz+Khalifa+-+2&amp;tr=udp%3A%2F%2Ftracker.openbittorrent.com%3A80&amp;tr=udp%3A%2F%2Fopen.demonii.com%3A1337&amp;tr=udp%3A%2F%2Ftracker.coppersurfer.tk%3A6969&amp;tr=udp%3A%2F%2Fexodus.desync.com%3A6969","seeders":4,"leechers":0,"uploader":"Sbyky","files":1,"time":1380539915,"description":"[IMG]http://cdn.piczend.com/images/0XzxE5Tg/1380422957_23explicit.jpg[/IMG]\n\nGeneral\nComplete name                            : Mike Will Made It Ft. Miley Cyrus, Juicy J &amp; Wiz Khalifa - 23 [Explicit] 720p [Sbyky].mp4\nFormat                                   : MPEG-4\nFormat profile                           : Base Media / Version 2\nCodec ID                                 : mp42\nFile size                                : 99.5 MiB\nDuration                                 : 5mn 17s\nOverall bit rate mode                    : Variable\nOverall bit rate                         : 2 630 Kbps\nEncoded date                             : UTC 2013-09-23 03:23:33\nTagged date                              : UTC 2013-09-23 03:23:33\n\nVideo\nID                                       : 1\nFormat                                   : AVC\nFormat/Info                              : Advanced Video Codec\nFormat profile                           : &lt;a class=&quot;__cf_email__&quot; href=&quot;/cdn-cgi/l/email-protection&quot; data-cfemail=&quot;80c8e9e7e8c0ccb3aeb1&quot;&gt;[email&amp;#160;protected]&lt;/a&gt;&lt;script cf-hash='f9e31' type=&quot;text/javascript&quot;&gt;\n/* &lt;![CDATA[ */!function(){try{var t=&quot;currentScript&quot;in document?document.currentScript:function(){for(var t=document.getElementsByTagName(&quot;script&quot;),e=t.length;e--;)if(t[e].getAttribute(&quot;cf-hash&quot;))return t[e]}();if(t&amp;&amp;t.previousSibling){var e,r,n,i,c=t.previousSibling,a=c.getAttribute(&quot;data-cfemail&quot;);if(a){for(e=&quot;&quot;,r=parseInt(a.substr(0,2),16),n=2;a.length-n;n+=2)i=parseInt(a.substr(n,2),16)^r,e+=String.fromCharCode(i);e=document.createTextNode(e),c.parentNode.replaceChild(e,c)}}}catch(u){}}();/* ]]&gt; */&lt;/script&gt;\nFormat settings, CABAC                   : Yes\nFormat settings, ReFrames                : 1 frame\nCodec ID                                 : avc1\nCodec ID/Info                            : Advanced Video Coding\nDuration                                 : 5mn 17s\nBit rate                                 : 2 435 Kbps\nMaximum bit rate                         : 5 142 Kbps\nWidth                                    : 1 280 pixels\nHeight                                   : 720 pixels\nDisplay aspect ratio                     : 16:9\nFrame rate mode                          : Constant\nFrame rate                               : 23.976 fps\nColor space                              : YUV\nChroma subsampling                       : 4:2:0\nBit depth                                : 8 bits\nScan type                                : Progressive\nBits/(Pixel*Frame)                       : 0.110\nStream size                              : 92.2 MiB (93%)\nTagged date                              : UTC 2013-09-23 03:23:46\n\nAudio\nID                                       : 2\nFormat                                   : AAC\nFormat/Info                              : Advanced Audio Codec\nFormat profile                           : LC\nCodec ID                                 : 40\nDuration                                 : 5mn 17s\nBit rate mode                            : Variable\nBit rate                                 : 192 Kbps\nMaximum bit rate                         : 202 Kbps\nChannel(s)                               : 2 channels\nChannel positions                        : Front: L R\nSampling rate                            : 44.1 KHz\nCompression mode                         : Lossy\nStream size                              : 7.27 MiB (7%)\nTitle                                    : IsoMedia File Produced by Google, 5-11-2011\nEncoded date                             : UTC 2013-09-23 03:23:43\nTagged date                              : UTC 2013-09-23 03:23:46\n\nShared By Sbyky\n[IMG]http://cdn.piczend.com/images/X3Ag13N3/1379453786_saythanks.gif[/IMG]\n[IMG]http://cdn.piczend.com/images/gGqhX2S8/1379453780_keepseeding.gif[/IMG]","torrent":{"xt":"urn:btih:dd8bfbb5ef6836220ddc551eaa0847242e15b151","amp;dn":"Mike+Will+Made+It+Ft.+Miley+Cyrus%2C+Juicy+J+%26amp%3B+Wiz+Khalifa+-+2","amp;tr":["udp%3A%2F%2Ftracker.openbittorrent.com%3A80","udp%3A%2F%2Fopen.demonii.com%3A1337","udp%3A%2F%2Ftracker.coppersurfer.tk%3A6969","udp%3A%2F%2Fexodus.desync.com%3A6969"],"infoHash":"dd8bfbb5ef6836220ddc551eaa0847242e15b151","infoHashBuffer":{"type":"Buffer","data":[221,139,251,181,239,104,54,34,13,220,85,30,170,8,71,36,46,21,177,81]},"announce":[],"urlList":[]}}